 http://www.imdb.com/title/tt0477857/

Source					 : DDR
Ripper					 : th3obr0

Format                                   : Matroska
Format version                           : Version 2
File size                                : 2.50 GiB
Duration                                 : 2h 0mn
Overall bit rate                         : 2 978 Kbps
Encoded date                             : UTC 2012-11-12 01:14:29
Writing application                      : mkvmerge v5.7.0 ('The Whirlwind') built on Jul  8 2012 20:08:51
Writing library                          : libebml v1.2.3 + libmatroska v1.3.0

Video
ID                                       : 1
Format                                   : AVC
Format/Info                              : Advanced Video Codec
Format profile                           : High@L4.2
Format settings, CABAC                   : Yes
Format settings, ReFrames                : 4 frames
Codec ID                                 : V_MPEG4/ISO/AVC
Duration                                 : 2h 0mn
Bit rate                                 : 2 528 Kbps
Width                                    : 1 280 pixels
Height                                   : 544 pixels
Display aspect ratio                     : 2.35:1
Frame rate                               : 24.975 fps
Color space                              : YUV
Chroma subsampling                       : 4:2:0
Bit depth                                : 8 bits
Scan type                                : Progressive
Bits/(Pixel*Frame)                       : 0.145
Stream size                              : 2.07 GiB (83%)
Title                                    : Sehar 720p [DDR]
Writing library                          : x264 core 125 r2200 999b753
Language                                 : Hindi
Default                                  : Yes
Forced                                   : No

Audio
ID                                       : 2
Format                                   : AC-3
Format/Info                              : Audio Coding 3
Mode extension                           : CM (complete main)
Format settings, Endianness              : Big
Codec ID                                 : A_AC3
Duration                                 : 2h 0mn
Bit rate mode                            : Constant
Bit rate                                 : 448 Kbps
Channel(s)                               : 6 channels
Channel positions                        : Front: L C R, Side: L R, LFE
Sampling rate                            : 48.0 KHz
Bit depth                                : 16 bits
Compression mode                         : Lossy
Stream size                              : 385 MiB (15%)
Title                                    : Hindi 5.1 [DDR]
Language                                 : Hindi
Default                                  : Yes
Forced                                   : No

Text
ID                                       : 3
Format                                   : UTF-8
Codec ID                                 : S_TEXT/UTF8
Codec ID/Info                            : UTF-8 Plain Text
Default                                  : Yes
Forced                                   : No


 
http://img823.imageshack.us/img823/8774/44795259.png
 
http://img838.imageshack.us/img838/4515/49114028.png
 
http://img853.imageshack.us/img853/4782/13562743.png
 
http://img809.imageshack.us/img809/7241/91600162.png
 
http://img69.imageshack.us/img69/2570/40713158.png
